<?xml version="1.0" standalone="no"?><!DOCTYPE svg PUBLIC "-//W3C//DTD SVG 1.1//EN" "http://www.w3.org/Graphics/SVG/1.1/DTD/svg11.dtd"><svg t="1647242502832" class="icon" viewBox="0 0 1024 1024" version="1.1" xmlns="http://www.w3.org/2000/svg" p-id="7898" width="128" height="128" xmlns:xlink="http://www.w3.org/1999/xlink"><defs><style type="text/css"></style></defs><path d="M430.880471 310.584688c-3.342118-12.023848-1.327228-24.399713 6.028297-37.111223s14.710027-25.423019 22.064528-38.134529c24.079418-48.158836 47.823192-87.620593 71.247694-118.399597 29.420053-38.789445 58.184167-60.854996 86.276992-66.210981 2.669806 0 6.507204 0 11.528568 0s16.565281 2.686179 34.632775 8.026814c38.789445 10.712993 77.57889 21.073968 116.384707 31.099299 70.895677 28.109198 106.344027 65.556065 106.344027 112.372324 0 17.396205-17.396205 44.833091-52.172243 82.279958-26.094308 27.421536-52.172243 54.171784-78.251202 80.266092l148.490939 100.332103c15.381315 10.04068 30.762631 19.394722 46.14497 28.092825 17.396205 12.040221 26.094308 25.423019 26.094308 40.132022 0 18.067494-4.860704 28.604478-14.550391 31.610952-9.705036 3.006474-19.235087 5.179976-28.604478 6.507204-8.698103 8.026814-17.379832 15.71696-26.077935 23.072485-6.699586 2.01489-14.054087 3.021823-22.080901 3.021823-6.011924 0-18.899442-1.503237-38.629809-4.508687s-37.287231-4.52506-52.668547-4.52506c-6.028297 0-11.719926 0-17.060561 0-8.026814 2.01489-13.718443 3.006474-17.044188 3.006474l-4.013407 27.085892c0 12.727882 32.426527 19.74674 97.31028 21.089317s97.325629 12.71151 97.325629 34.104749c0 15.381315-7.691169 26.429952-23.072485 33.113165s-35.44835 10.025331-60.199057 10.025331c-15.381315 0-36.790928-1.503237-64.212464-4.508687-27.436886-3.006474-41.811268-4.189416-43.138496-3.518127-4.02978 6.683213-7.03523 12.040221-9.033747 16.053628l0 32.106232 149.498896 5.02034 18.052145 0c21.393239 0 36.119639 1.679245 44.146453 5.004991 15.381315 5.355985 23.072485 15.733333 23.072485 31.114648 0 16.053628-7.867178 26.909883-23.584138 32.601512-15.71696 5.676279-37.287231 8.522094-64.707744 8.522094-16.724917 0-34.776038-0.671289-54.171784-1.998517-48.158836-4.02978-74.589812-6.028297-79.258135-6.028297-13.382798 0-20.402679 24.735357-21.073968 74.253144-0.671289 49.486064-15.062044 74.237795-43.138496 74.237795-15.397688 0-26.270317-3.853771-32.617885-11.528568-6.363941-7.706519-9.529027-18.899442-9.529027-33.609469 0-5.355985 1.998517-22.416546 6.028297-51.181683 1.327228-11.367909 1.998517-22.064528 1.998517-32.106232l0-12.040221c0-2.686179 0-5.691629 0-9.017374-1.342578-4.02978-7.355525-6.028297-18.052145-6.028297-8.698103 0-23.424502 0.335644-44.161802 1.006933s-36.790928 1.006933-48.143487 1.006933c-30.779004 0-54.027497-1.854231-69.744457-5.516644-15.71696-3.693112-24.911366-11.895935-27.581172-24.591071 0-21.393239 6.507204-34.776038 19.554358-40.133046 13.047154-5.340635 33.609469-8.026814 61.717643-8.026814l125.403105 0c0-11.367909 0.335644-19.394722 1.006933-24.079418 0.671289-4.668323 0.671289-10.360975 0-17.060561-15.381315 0-35.623335 0.335644-60.694337 1.006933-25.087375 0.671289-41.971927 1.006933-50.67003 1.006933-32.106232 0-55.019081-2.830465-68.737524-8.522094s-20.562315-18.22713-20.562315-37.638225c0-14.710027 8.362458-24.735357 25.087375-30.091342 16.724917-5.340635 40.804335-8.026814 72.239278-8.026814 10.025331 0 27.421536 0.335644 52.172243 1.006933s43.809785 0.991584 57.193607 0.991584l0-46.14497c-8.698103 4.013407-17.060561 6.011924-25.087375 6.011924-9.369392 0-17.396205-0.319272-24.079418-0.991584-32.106232-3.342118-55.19509-5.02034-69.232804-5.02034-13.382798 0-32.106232 4.684696-56.18565 14.038738-13.382798 5.355985-23.408129 8.026814-30.091342 8.026814l-40.133046-5.004991c-2.01489 6.683213-3.021823 17.060561-3.021823 31.099299 0 14.710027 0.49528 35.287691 1.503237 61.702294 1.006933 26.429952 1.518586 39.972387 1.518586 40.628326 0 25.423019-1.679245 45.169759-5.02034 59.207473-7.355525 24.079418-20.738323 44.801369-40.133046 62.197574-25.423019 22.73684-57.529251 34.121122-96.318696 34.121122-48.831148 0-89.299839-5.02034-121.406071-15.062044-47.487547-15.381315-71.231321-40.804335-71.231321-76.252685 0-67.538209-0.511653-144.797827-1.503237-231.747131-1.006933-86.948281-1.503237-135.459135-1.503237-145.500838 1.998517-45.473681 3.997034-91.634 6.011924-138.450259 5.340635-22.064528 18.052145-33.113165 38.134529-33.113165 22.73684 0 35.767622 14.054087 39.125089 42.147936 1.998517 10.712993 3.006474 25.423019 3.006474 44.146453 0 60.199057 0.830925 130.599454 2.51017 211.200166 1.662873 80.601736 2.51017 131.270742 2.51017 151.992693 0 10.712993-0.511653 21.904892-1.503237 33.609469-1.006933 11.704576-1.838881 23.584138-2.51017 35.623335 0 17.396205 6.011924 28.41312 18.052145 33.113165l21.073968 0L204.13833 507.235486c0-38.118156 0.49528-87.444585 1.503237-147.979286 0.991584-60.534701 1.503237-110.197798 1.503237-149.002592 0-9.354042 4.013407-19.218714 12.040221-29.596062 8.026814-10.360975 15.381315-15.557324 22.080901-15.557324 11.352559 0 22.049179 4.684696 32.089859 14.054087s15.062044 21.745257 15.062044 37.126572c0 81.608669 0.830925 150.665465 2.51017 207.187783 1.662873 56.521295 3.677762 119.566166 6.011924 189.119265 2.334161 69.568449 3.518127 132.773979 3.518127 189.630918l14.038738 0c11.367909-7.370875 19.235087-23.584138 23.584138-48.670489 4.349051-25.071002 6.523577-67.042929 6.523577-125.914758l-18.067494-330.096067c2.01489-10.69662 6.859221-18.883069 14.550391-24.575722 7.691169-5.676279 17.220197-8.522094 28.604478-8.522094 9.354042 0 20.22667 5.852288 32.601512 17.555841s18.563798 24.911366 18.563798 39.621393l1.998517 18.067494c0 38.134529 0 74.925457 0 110.372783s0.335644 69.217455 1.006933 101.322663c30.091342-28.076452 60.870346-56.169277 92.305289-84.278475 62.869886-60.182684 96.65434-91.298356 101.339036-93.313246l0-7.018857c-6.699586-3.342118-22.928199-15.71696-48.670489-37.126572-25.742291-21.393239-38.949081-32.426527-39.621393-33.097816l-7.018857 0c-3.357468 14.710027-8.698103 25.742291-16.053628 33.097816-11.384281 10.04068-28.444842 16.740266-51.181683 20.066011-5.355985-6.011924-10.201339-12.183484-14.550391-18.547425S432.895361 317.940213 430.880471 310.584688zM797.096177 198.213387c0-13.366426-22.75219-27.085892-68.225871-41.12463-45.48903-14.038738-74.589812-21.073968-87.284949-21.073968-16.724917 0-34.792411 13.382798-54.187133 40.133046-6.011924 8.698103-14.038738 22.064528-24.079418 40.133046 0 3.342118 4.013407 7.691169 12.040221 13.030781 8.026814 5.355985 16.053628 10.04068 24.079418 14.054087l88.291882 68.225871c38.118156-33.449833 63.541175-56.521295 76.252685-69.232804C786.04754 220.294288 797.096177 205.567889 797.096177 198.213387zM728.870306 450.042903c-6.683213-5.340635-12.040221-9.017374-16.053628-11.032264-11.384281-8.026814-20.738323-14.038738-28.092825-18.052145-1.342578 3.342118-30.762631 30.762631-88.291882 82.264609l50.173726 6.028297 36.119639-3.021823c0-16.708544 4.332678-30.250978 13.030781-40.628326C704.455243 455.239252 715.487507 450.042903 728.870306 450.042903zM823.190485 515.2623c-4.02978-4.668323-8.042163-8.346085-12.040221-11.032264-12.05557-10.69662-24.76708-20.066011-38.134529-28.092825l-1.998517 35.111682L823.190485 515.2623z" p-id="7899"></path></svg>